<?xml version="1.0" encoding="UTF-8"?><svg id="Layer_2" xmlns="http://www.w3.org/2000/svg" viewBox="0 0 89.75 109.65"><g id="Title_Page_Content"><g><path d="M51.94,106.34c-1.22,0-1.99-.04-2.14-.05-.65-.04-1.14-.6-1.1-1.25,.04-.65,.6-1.15,1.25-1.1,.2,.01,19.87,1.13,29.58-9.82,8.5-9.59,6.89-25.61,6.33-29.62-4.04-.08-20.15,.27-28.64,9.86-1.46,1.65-2.71,3.59-3.71,5.78-.27,.59-.97,.85-1.57,.58-.59-.27-.85-.97-.58-1.57,1.1-2.39,2.47-4.53,4.09-6.36,10.48-11.83,30.65-10.67,31.5-10.62,.54,.04,.99,.43,1.08,.96,.16,.84,3.75,20.72-6.73,32.55-8.6,9.72-23.75,10.67-29.36,10.67Z" style="fill:#0c87a0; stroke:#0c87a0; stroke-miterlimit:10; stroke-width:2px;"/><path d="M49.74,106.27c-.15,0-.3-.03-.44-.09-.53-.21-12.94-5.31-16.18-15.67-3.24-10.36,4.07-21.62,4.38-22.09,.31-.47,.91-.66,1.43-.45,.53,.21,12.94,5.31,16.18,15.67,3.24,10.36-4.07,21.62-4.38,22.09-.22,.34-.6,.53-.99,.53Zm-10.78-35.69c-1.56,2.73-6.01,11.47-3.58,19.23,2.42,7.76,11.05,12.42,13.89,13.77,1.57-2.73,6-11.47,3.58-19.23-2.43-7.77-11.05-12.43-13.89-13.77Z" style="fill:#0c87a0; stroke:#0c87a0; stroke-miterlimit:10; stroke-width:2px;"/><g><g><path d="M37.05,108.65c-1.38,0-2.76-.08-4.14-.23-16.24-1.83-29.54-14.91-31.61-31.11C-.92,59.93,9.36,43.65,25.84,38.26V12.49h-.45c-1.62,0-3.17-.69-4.26-1.89-1.09-1.2-1.62-2.82-1.45-4.44,.29-2.89,2.91-5.15,5.97-5.15h23.15c1.61,0,3.15,.68,4.23,1.86,1.08,1.18,1.63,2.78,1.49,4.39-.26,2.93-2.91,5.23-6.04,5.23h-.13v25.77c11.88,3.89,20.98,13.76,23.87,25.94,.15,.63-.24,1.27-.88,1.42-.64,.15-1.27-.24-1.42-.88-2.76-11.65-11.61-21.03-23.1-24.49-.5-.15-.84-.61-.84-1.13V11.38c0-.65,.6-1.26,1.26-1.26h1.23c1.92,0,3.54-1.35,3.69-3.08,.08-.96-.23-1.88-.88-2.59-.64-.7-1.55-1.1-2.49-1.1H25.65c-1.86,0-3.45,1.33-3.62,3.03-.1,.97,.21,1.9,.86,2.62,.64,.71,1.55,1.11,2.51,1.11h1.63c.65,0,1.18,.53,1.18,1.18v27.82c0,.52-.34,.98-.84,1.13C11.51,45.03,1.53,60.48,3.64,77.01c1.93,15.13,14.35,27.35,29.53,29.06,5.79,.65,11.63-.17,16.9-2.37,.6-.25,1.29,.03,1.54,.64,.25,.6-.03,1.29-.64,1.54-4.38,1.83-9.13,2.76-13.93,2.76Z" style="fill:#0c87a0; stroke:#0c87a0; stroke-miterlimit:10; stroke-width:2px;"/><path d="M37.1,100.29c-15.13,0-27.44-12.31-27.44-27.44,0-4.78,1.27-9.51,3.67-13.68,.14-.24,.36-.43,.63-.52,4.73-1.69,10.56-1.2,17.31,1.46,9.47,3.73,19.45,6.24,28.27-.58,.28-.21,.63-.29,.97-.22,.34,.07,.63,.29,.79,.6,1.28,2.39,2.09,4.9,2.63,8.12,.11,.64-.33,1.25-.97,1.36-.65,.1-1.25-.33-1.36-.97-.41-2.44-.96-4.36-1.78-6.17-9.49,6.49-20.17,3.71-29.42,.06-5.92-2.33-11.17-2.87-15.24-1.57-2.06,3.71-3.14,7.89-3.14,12.11,0,13.83,11.25,25.08,25.08,25.08,.81,0,1.62-.04,2.41-.11,.65-.07,1.23,.41,1.29,1.06,.06,.65-.41,1.23-1.06,1.29-.87,.08-1.75,.12-2.64,.12Z" style="fill:#0c87a0; stroke:#0c87a0; stroke-miterlimit:10; stroke-width:2px;"/></g><path d="M33.81,12.49h-7.86c-.65,0-1.18-.53-1.18-1.18s.53-1.18,1.18-1.18h7.86c.65,0,1.18,.53,1.18,1.18s-.53,1.18-1.18,1.18Z" style="fill:#0c87a0; stroke:#0c87a0; stroke-miterlimit:10; stroke-width:2px;"/><path d="M48.14,12.49h-4.48c-.65,0-1.18-.53-1.18-1.18s.53-1.18,1.18-1.18h4.48c.65,0,1.18,.53,1.18,1.18s-.53,1.18-1.18,1.18Z" style="fill:#0c87a0; stroke:#0c87a0; stroke-miterlimit:10; stroke-width:2px;"/><path d="M22.84,79.4c-3.61,0-6.55-2.94-6.55-6.55s2.94-6.55,6.55-6.55,6.55,2.94,6.55,6.55-2.94,6.55-6.55,6.55Zm0-10.74c-2.31,0-4.19,1.88-4.19,4.19s1.88,4.19,4.19,4.19,4.19-1.88,4.19-4.19-1.88-4.19-4.19-4.19Z" style="fill:#0c87a0; stroke:#0c87a0; stroke-miterlimit:10; stroke-width:2px;"/></g><path d="M49.48,105.14c-.58,0-1.08-.42-1.17-1.01-.73-5.07-2.02-11.68-5.58-17.88-.32-.57-.13-1.29,.44-1.61,.56-.33,1.29-.13,1.61,.44,3.76,6.55,5.11,13.45,5.87,18.72,.09,.65-.36,1.24-1,1.34-.06,0-.11,.01-.17,.01Z" style="fill:#0c87a0; stroke:#0c87a0; stroke-miterlimit:10; stroke-width:2px;"/><path d="M50.82,105.59c-.19,0-.39-.05-.57-.15-.57-.32-.78-1.03-.46-1.6,6.71-12.16,13.73-20.29,21.48-24.85,.56-.33,1.29-.14,1.62,.42,.33,.56,.14,1.29-.42,1.62-7.37,4.33-14.11,12.17-20.61,23.95-.22,.39-.62,.61-1.03,.61Z" style="fill:#0c87a0; stroke:#0c87a0; stroke-miterlimit:10; stroke-width:2px;"/></g></g></svg>